<svg xmlns="http://www.w3.org/2000/svg" enable-background="new 0 0 47.5 47.5" viewBox="0 0 47.5 47.5" id="snowboarder"><defs><clipPath id="a"><path d="M0 38h38V0H0v38Z"></path></clipPath></defs><g clip-path="url(#a)" transform="matrix(1.25 0 0 -1.25 0 47.5)"><path fill="#e1e8ed" d="M0 0v-16s0-4-4-4h-28c-4 0-4 4-4 4v2S-19-4 0 0" transform="translate(37 21)"></path><path fill="#aa8ed6" d="M0 0a2 2 0 0 0-.98-2.653L-24.596-13.53a1.999 1.999 0 0 0-2.652.979l-.837 1.818a2 2 0 0 0 .98 2.653L-3.49 2.797a2.002 2.002 0 0 0 2.654-.98L0 0Z" transform="translate(33.816 16.02)"></path><path fill="#67757f" d="M0 0c-.3 0-.605.067-.893.211l-2 1c-.438.22-.78.592-.962 1.046l-1.682 4.204-4.204 1.682a1.999 1.999 0 0 0-1.114 2.6 1.998 1.998 0 0 0 2.599 1.114l5.001-2c.508-.203.91-.606 1.114-1.114l1.717-4.294 1.32-.66A2 2 0 0 0 0 0" transform="translate(26.406 11)"></path><path fill="#67757f" d="M0 0a2 2 0 0 0-1.791 1.105l-1 2a2.004 2.004 0 0 0-.171 1.288l.848 4.241-2.602 4.337a1.999 1.999 0 1 0 3.429 2.058l3-5c.257-.426.344-.933.246-1.422L1.094 4.28l.694-1.385A2.002 2.002 0 0 0 0 0" transform="translate(17.41 7)"></path><path fill="#ccd6dd" d="M0 0c-3.888 0-7.231 4.309-7.6 4.8a2 2 0 0 0 3.198 2.403C-3.396 5.873-1.365 4 0 4a2 2 0 0 0 0-4" transform="translate(25.408 21)"></path><path fill="#ccd6dd" d="M0 0a2 2 0 0 0-1.897 1.368c-1.058 3.175-.442 6.121 1.733 8.297 1.539 1.54 3.332 2.167 3.532 2.233a2 2 0 0 0 1.276-3.791C3.681 7.77.648 6.381 1.898 2.633A2 2 0 0 0 0 0" transform="translate(8.408 16.999)"></path><path fill="#67757f" d="M0 0a3.5 3.5 0 1 0-7 0v4a3.5 3.5 0 1 0 7 0V0Z" transform="translate(19.408 21.5)"></path><path fill="#ccd6dd" d="M0 0a2 2 0 0 0-2-2h-7a2 2 0 0 0 0 4h7a2 2 0 0 0 2-2" transform="translate(21.408 27)"></path><path fill="#ccd6dd" d="M0 0a.498.498 0 0 0-.5.5v7C-.5 10 2.208 10 4 10c1.792 0 4.5 0 4.5-2.5v-4a.5.5 0 0 0-.324-.468l-8-3A.489.489 0 0 0 0 0" transform="translate(12 18.5)"></path><path fill="#bb1a34" d="m0 0-1 3a.501.501 0 0 1-.475.342c-.129 0-3.213-.035-7.299-3.1-3.868-2.901-4.756-2.901-6.701-2.901l-3 .001a.5.5 0 0 1-.353-.147c-.527-.527-.666-1.268-.371-1.982.375-.904 1.55-1.871 3.724-1.871 1.439 0 3.533 1.156 5.957 2.493C-6.539-2.521-3.163-.658-.475-.658A.5.5 0 0 1 0 0" transform="translate(32.475 33.158)"></path><path fill="#d99e82" d="M0 0a4 4 0 0 0-8 0c0 2.209 1.791 3 4 3s4-.791 4-3" transform="translate(19.408 33)"></path><path fill="#9aaab4" d="M0 0c2 0 4 1 4 0s0-3 2-3 3 7-3 7-6-4-3-4" transform="translate(13 33)"></path><path fill="#bdddf4" d="M0 0a1.5 1.5 0 1 0-2.999-.001A1.5 1.5 0 0 0 0 0" transform="translate(14 32.5)"></path><path fill="#67757f" d="M0 0c-.551 0-1-.449-1-1 0-.551.449-1 1-1 .551 0 1 .449 1 1C1-.449.551 0 0 0m0-3c-1.103 0-2 .897-2 2s.897 2 2 2 2-.897 2-2-.897-2-2-2" transform="translate(12.5 33.5)"></path><path fill="#bdddf4" d="M0 0a1.5 1.5 0 1 0-2.999-.001A1.5 1.5 0 0 0 0 0" transform="translate(17 32.5)"></path><path fill="#67757f" d="M0 0c-.551 0-1-.449-1-1 0-.551.449-1 1-1 .551 0 1 .449 1 1C1-.449.551 0 0 0m0-3c-1.103 0-2 .897-2 2s.897 2 2 2 2-.897 2-2-.897-2-2-2" transform="translate(15.5 33.5)"></path></g></svg>