<svg xmlns="http://www.w3.org/2000/svg" viewBox="0 0 48 48" id="taxi-cab"><g><path fill="#fae380" d="M44.5,42H3.5V34a3,3,0,0,1,3-3l33,.14a5,5,0,0,1,5,5Z"></path><polygon fill="#b1d8fa" points="30.45 24.13 15.52 24.13 15.52 31.05 33.54 31.13 30.45 24.13"></polygon><polygon fill="#fae380" points="15.51 31.06 8.5 31.06 13.5 24.11 15.52 24.12 15.51 31.06"></polygon><path fill="#f4d967" d="M8.39,31A3,3,0,0,0,5.5,34v8h-2V34a3,3,0,0,1,3-3Z"></path><polygon fill="#f4d967" points="15.45 24.13 10.5 31 8.5 31 13.51 24.13 15.45 24.13"></polygon><circle cx="13" cy="42" r="4" fill="#87868a"></circle><circle cx="34" cy="42" r="4" fill="#87868a"></circle><rect width="5" height="3" x="19.5" y="21.13" fill="#5b5b5f"></rect><circle cx="13" cy="42" r="1.5" fill="#5b5b5f"></circle><path fill="#5b5b5f" d="M34,40.5A1.5,1.5,0,1,0,35.5,42,1.5,1.5,0,0,0,34,40.5Z"></path><rect width="2" height="2" x="6.5" y="32.72" fill="#5b5b5f"></rect><rect width="2" height="2" x="8.5" y="34.72" fill="#5b5b5f"></rect><rect width="2" height="2" x="10.5" y="32.72" fill="#5b5b5f"></rect><rect width="2" height="2" x="12.5" y="34.72" fill="#5b5b5f"></rect><rect width="2" height="2" x="14.5" y="32.72" fill="#5b5b5f"></rect><rect width="2" height="2" x="16.5" y="34.72" fill="#5b5b5f"></rect><rect width="2" height="2" x="18.5" y="32.72" fill="#5b5b5f"></rect><rect width="2" height="2" x="20.5" y="34.72" fill="#5b5b5f"></rect><rect width="2" height="2" x="22.5" y="32.72" fill="#5b5b5f"></rect><rect width="2" height="2" x="24.5" y="34.72" fill="#5b5b5f"></rect><rect width="2" height="2" x="26.5" y="32.72" fill="#5b5b5f"></rect><rect width="2" height="2" x="28.5" y="34.72" fill="#5b5b5f"></rect><rect width="2" height="2" x="30.5" y="32.72" fill="#5b5b5f"></rect><rect width="2" height="2" x="32.5" y="34.72" fill="#5b5b5f"></rect><rect width="2" height="2" x="34.5" y="32.72" fill="#5b5b5f"></rect><rect width="2" height="2" x="36.5" y="34.72" fill="#5b5b5f"></rect><rect width="2" height="2" x="38.5" y="32.72" fill="#5b5b5f"></rect></g></svg>