<svg xmlns="http://www.w3.org/2000/svg" viewBox="0 0 512 512" id="eiffel-tower"><defs><linearGradient id="a" x1="479.598" x2="32.414" y1="73.431" y2="520.615" gradientUnits="userSpaceOnUse"><stop offset="0" stop-color="#faac1e"></stop><stop offset="1" stop-color="#eb1b45"></stop></linearGradient></defs><path fill="url(#a)" d="M485.426,466.5H385.244c-25.591-39.013-42.091-72.867-50.326-103.272l19.109-26.659a7,7,0,0,0-5.689-11.079H327.277c-6.96-23.558-13.821-47.582-16.381-68.909a6.983,6.983,0,0,0,.782-1.206l14.568-29.334a7,7,0,0,0-6.269-10.113H294.42c-11.025-65.247-15.9-98.279-19.853-156.56a12.7,12.7,0,0,0,7.19-8.962,26.442,26.442,0,0,0,.544-5.339c0-20.6-21.084-37.372-21.982-38.077a7,7,0,0,0-8.673.028c-.895.712-21.947,17.664-21.947,38.049a26.423,26.423,0,0,0,.545,5.342,12.7,12.7,0,0,0,7.195,8.961c-3.855,57.479-8.98,92.16-19.859,156.558H192.023a7,7,0,0,0-6.269,10.113l14.568,29.334a6.983,6.983,0,0,0,.782,1.206c-2.56,21.327-9.421,45.351-16.381,68.909H163.662a7,7,0,0,0-5.689,11.079l19.109,26.659c-8.235,30.4-24.735,64.259-50.326,103.272H26.574a20,20,0,1,0,0,40H485.426a20,20,0,1,0,0-40ZM273.406,259.26c.961,18.819,2.8,40.2,5.683,66.228H232.911c2.887-26.024,4.722-47.409,5.683-66.228Zm19.768,66.228c-2.919-26.119-4.775-47.49-5.75-66.228h9.7c2.627,20.947,8.947,43.746,15.555,66.228ZM256.021,21.959c5.356,5.431,12.28,14.433,12.28,23.106a12.633,12.633,0,0,1-.082,1.431H243.781a12.633,12.633,0,0,1-.082-1.431C243.7,36.483,250.653,27.432,256.021,21.959ZM251.4,60.5h9.217c3.947,58.083,8.79,91.289,19.611,155.43H231.777C242.459,152.6,247.547,117.779,251.4,60.5Zm57.29,169.43-7.616,15.334H210.931l-7.616-15.334ZM214.872,259.26h9.7c-.975,18.738-2.831,40.109-5.75,66.228H199.317C205.925,303.006,212.245,280.207,214.872,259.26Zm119.836,80.228-10.99,15.333H188.282l-10.99-15.333ZM190.056,368.821H321.944c8.215,29.293,23.537,61.4,46.632,97.677H337.535a81.833,81.833,0,0,0-163.07,0H143.424C166.519,430.218,181.841,398.114,190.056,368.821ZM323.494,466.5H188.506a67.856,67.856,0,0,1,134.988,0Zm161.932,26H26.574a6,6,0,1,1,0-12H485.426a6,6,0,1,1,0,12ZM383.366,110.951a6.877,6.877,0,0,0,1.11.089h75.043a19.163,19.163,0,0,0,14.731-6.864,27.789,27.789,0,0,0-12.961-44.339,26.363,26.363,0,0,0-46.806-8.169A24.057,24.057,0,0,0,384.03,67.7a21.858,21.858,0,0,0-.664,43.254Zm3.482-29.434a7.909,7.909,0,0,1,1.7.186,7,7,0,0,0,8.5-6.952l-.008-.234A10.025,10.025,0,0,1,407.058,64.5a9.91,9.91,0,0,1,6.143,2.111,7,7,0,0,0,10.971-3.386,12.348,12.348,0,0,1,24.078,2.929,7,7,0,0,0,6.223,6.493,13.748,13.748,0,0,1,12.255,13.7,13.605,13.605,0,0,1-3.209,8.84,5.2,5.2,0,0,1-4,1.854h-74.4a7.858,7.858,0,0,1,1.727-15.523ZM67.085,100.68h82.8a6.852,6.852,0,0,0,1.108-.089,23.393,23.393,0,0,0-1.18-46.349,25.816,25.816,0,0,0-33.322-17.489,28.362,28.362,0,0,0-50.769,8.73A29.937,29.937,0,0,0,51.384,93.364,20.422,20.422,0,0,0,67.085,100.68Zm5.488-42.356A7,7,0,0,0,78.8,51.832a14.348,14.348,0,0,1,27.979-3.4,7,7,0,0,0,10.971,3.387,11.645,11.645,0,0,1,7.224-2.483,11.785,11.785,0,0,1,11.77,11.782l-.006.218a7,7,0,0,0,8.5,6.995,9.514,9.514,0,0,1,2.031-.222,9.393,9.393,0,0,1,1.982,18.575H67.085a6.459,6.459,0,0,1-4.97-2.307A15.929,15.929,0,0,1,72.573,58.324Z"></path></svg>