<svg xmlns="http://www.w3.org/2000/svg" width="32" height="32" id="food"><g stroke-linecap="round" stroke-linejoin="round" transform="translate(2412.002 -961.068)"><path fill="none" stroke="#383747" d="M-2382.295 975.975c.027.361.04.726.04 1.093 0 8.069-6.547 14.61-14.624 14.61-8.076 0-14.623-6.541-14.623-14.61 0-8.069 6.547-14.61 14.623-14.61 4.026 0 7.672 1.626 10.316 4.255"></path><path fill="#faa41a" stroke="#383747" d="M-2385.504 976.076c.029.327.043.658.043.992 0 6.3-5.112 11.406-11.417 11.406s-11.417-5.107-11.417-11.406c0-6.3 5.112-11.406 11.417-11.406 3.18 0 6.057 1.3 8.127 3.396"></path><path fill="#faa41a" stroke="#383747" d="M-2385.305 965.212a8.651 8.651 0 0 1 4.278 10.714l-13.761.115z"></path><ellipse cx="-2393.671" cy="983.348" fill="none" stroke="#fff" rx=".738" ry=".737"></ellipse><ellipse cx="-2389.502" cy="981.618" fill="none" stroke="#fff" rx=".738" ry=".737"></ellipse><path fill="none" stroke="#fff" d="M-2398.767 976.415c-.37-.488.711-1.309 1.343-1.277.3.014.666.396.567.665-.125.34-.753.112-1.11.232-.281.095-.626.61-.8.38zm-.855-8.052c.37.488-.712 1.308-1.344 1.277-.3-.014-.666-.396-.566-.665.125-.34.753-.112 1.11-.232.28-.094.625-.61.8-.38zm5.4 2.084c-.201.579-1.483.133-1.807-.41-.154-.258-.04-.774.24-.84.353-.083.51.565.808.795.235.182.855.183.76.455zm-10.094 4.923c-.234-.566-1.49-.047-1.782.513-.138.266.01.774.288.824.357.062.478-.593.762-.84.224-.194.843-.231.732-.497zm3.2 3.992c-.026-.612-1.383-.556-1.85-.13-.222.203-.26.73-.013.874.313.182.652-.393 1.004-.528.277-.106.87.072.858-.216zm11.802-6.857c-.52.717.996 1.92 1.883 1.874.42-.02.932-.58.793-.976-.175-.498-1.055-.164-1.556-.34-.393-.14-.876-.895-1.12-.558zm6.742 1.049c.37-.489-.711-1.309-1.344-1.277-.3.014-.665.395-.566.664.125.34.753.113 1.11.233.281.094.625.61.8.38z"></path><ellipse cx="-2385.24" cy="969.344" fill="none" stroke="#fff" rx=".738" ry=".737"></ellipse><path fill="none" stroke="#fff" d="M-2400.131 984.063c-.37.488.711 1.308 1.344 1.276.3-.014.665-.395.566-.664-.125-.34-.753-.112-1.11-.233-.281-.095-.626-.61-.8-.38zm5.892-5.07c-.235-.565-1.49-.046-1.782.514-.139.266.01.774.288.824.357.062.477-.593.761-.84.224-.194.843-.231.733-.497z"></path><ellipse cx="-2401.096" cy="973.537" fill="none" stroke="#fff" rx=".738" ry=".737"></ellipse></g></svg>