<svg xmlns="http://www.w3.org/2000/svg" enable-background="new 0 0 512 512" viewBox="0 0 512 512" id="grocery-bag"><path fill="#fff" d="M371.356,204.713h-122.46V67.814h117.472c2.755,0,4.988,2.233,4.988,4.988V204.713z"></path><path fill="#3498db" d="M366.368,67.814H248.896v32.687h122.46V72.803C371.356,70.048,369.123,67.814,366.368,67.814z"></path><path fill="#2ecc71" d="M248.896,62.804v5.01h100.232c-2.454-8.458,2.005-20.51-3.04-27.442
					c-5.185-7.125-18.432-6.436-25.558-11.621c-7.055-5.134-10.464-17.974-18.939-20.726c-8.178-2.656-18.446,5.642-27.51,5.642
					c-9.063,0-19.331-8.297-27.509-5.642c-6.391,2.075-9.902,9.886-14.267,15.804C242.527,33.674,248.896,47.491,248.896,62.804z"></path><path fill="#dd7f66" d="M248.896,209.614H140.644V62.804c0-29.893,24.233-54.126,54.126-54.126h0
					c29.893,0,54.126,24.233,54.126,54.126V209.614z"></path><path fill="#f39c12" d="M395.257,136.004l-40.082,16.184c-1.18,0.477-2.499,0.477-3.679,0l-44.995-18.168
					c-1.18-0.477-2.499-0.477-3.68,0l-44.988,18.168c-1.18,0.477-2.499,0.477-3.68,0l-44.99-18.168c-1.18-0.477-2.499-0.477-3.68,0
					l-44.987,18.168c-1.18,0.477-2.499,0.477-3.68,0l-40.073-16.184c-3.23-1.304-6.753,1.073-6.753,4.556v250.646
					c0,27.777-3.734,55.428-11.102,82.21l0,0c-4.303,15.641,7.466,31.084,23.687,31.084h266.85c16.222,0,27.99-15.443,23.687-31.084
					l0,0c-7.368-26.782-11.102-54.433-11.102-82.21V140.56C402.01,137.077,398.487,134.7,395.257,136.004z"></path><path d="M169.183 186.832c-4.143 0-7.5 3.358-7.5 7.5v25.962c0 52.007 42.31 94.318 94.317 94.318s94.318-42.311 94.318-94.318v-25.962c0-4.142-3.357-7.5-7.5-7.5s-7.5 3.358-7.5 7.5v25.962c0 43.736-35.582 79.318-79.318 79.318-43.736 0-79.317-35.582-79.317-79.318v-25.962C176.683 190.19 173.325 186.832 169.183 186.832zM154.217 444.584c0 4.142 3.357 7.5 7.5 7.5h188.567c4.143 0 7.5-3.358 7.5-7.5 0-4.142-3.357-7.5-7.5-7.5H161.717C157.574 437.084 154.217 440.442 154.217 444.584z"></path><path d="M420.342,471.427c-7.188-26.128-10.833-53.117-10.833-80.22v-67.753c0-4.142-3.357-7.5-7.5-7.5
				c-4.143,0-7.5,3.358-7.5,7.5v67.753c0,28.447,3.825,56.775,11.37,84.198c1.425,5.179,0.375,10.6-2.881,14.872
				S394.794,497,389.423,497H122.577c-5.371,0-10.319-2.45-13.575-6.723c-3.256-4.272-4.306-9.693-2.881-14.872
				c7.545-27.425,11.371-55.754,11.371-84.198V144.399l36.518,14.748c2.997,1.209,6.299,1.21,9.296,0l44.019-17.777l44.021,17.777
				c2.997,1.209,6.297,1.21,9.296,0l44.019-17.777l44.025,17.777c2.998,1.211,6.299,1.21,9.297,0l36.527-14.749v146.371
				c0,4.142,3.357,7.5,7.5,7.5c4.143,0,7.5-3.358,7.5-7.5V140.564c0-4.132-2.045-7.979-5.472-10.29
				c-3.426-2.312-7.761-2.768-11.59-1.22l-13.593,5.488V72.808c0-6.886-5.602-12.488-12.488-12.488H355.83
				c0.014-1.305,0.075-2.687,0.14-4.108c0.305-6.613,0.649-14.107-3.819-20.247c-4.508-6.193-11.78-8.177-18.198-9.927
				c-3.472-0.947-7.061-1.926-9.011-3.345c-1.896-1.381-3.907-4.46-5.851-7.438c-3.661-5.607-7.809-11.963-15.184-14.358
				c-7.118-2.312-14.076,0.312-20.216,2.626c-3.456,1.303-7.029,2.649-9.61,2.649c-2.58,0-6.154-1.347-9.609-2.649
				c-6.139-2.313-13.097-4.934-20.215-2.626c-6.31,2.049-10.256,6.995-13.558,11.893c-10.123-7.292-22.528-11.605-35.929-11.605
				c-33.98,0-61.625,27.645-61.625,61.625v18.235c0,4.142,3.357,7.5,7.5,7.5s7.5-3.358,7.5-7.5V62.809
				c0-25.709,20.916-46.625,46.625-46.625s46.625,20.916,46.625,46.625v5.977l-45.266-8.343c-4.081-0.75-7.984,1.943-8.735,6.017
				c-0.751,4.073,1.943,7.984,6.017,8.735l47.985,8.844v25.081l-45.266-8.343c-4.081-0.749-7.984,1.943-8.735,6.017
				c-0.751,4.073,1.943,7.984,6.017,8.735l47.985,8.844v14.578l-29.424-11.882c-2.997-1.209-6.299-1.211-9.296,0l-44.019,17.776
				l-10.512-4.245v-26.871c0-4.142-3.357-7.5-7.5-7.5s-7.5,3.358-7.5,7.5v20.813l-13.593-5.489
				c-3.833-1.548-8.164-1.092-11.591,1.219c-3.426,2.311-5.471,6.158-5.471,10.291v250.643c0,27.1-3.645,54.09-10.834,80.22
				c-2.677,9.73-0.704,19.915,5.413,27.942c6.117,8.027,15.414,12.631,25.506,12.631h266.847c10.092,0,19.388-4.604,25.506-12.631
				C421.046,491.342,423.019,481.158,420.342,471.427z M353.335,144.847l-44.027-17.777c-2.997-1.209-6.297-1.211-9.296,0
				l-43.616,17.613v-26.705c0-0.002,0-0.004,0-0.006v-9.966h107.459v32.592L353.335,144.847z M363.855,93.007H256.396V77.645
				c0-0.002,0-0.004,0-0.006v-2.32h107.459V93.007z M248.89,15.163c2.11-0.688,6.458,0.95,10.292,2.395
				c4.494,1.694,9.587,3.613,14.9,3.613c5.314,0,10.407-1.92,14.9-3.613c3.834-1.445,8.178-3.081,10.293-2.395
				c2.34,0.76,4.84,4.588,7.257,8.291c2.684,4.112,5.46,8.364,9.585,11.367c4.175,3.038,9.336,4.445,13.89,5.687
				c4.035,1.101,8.608,2.348,10.016,4.283c1.37,1.883,1.154,6.584,0.963,10.731c-0.072,1.58-0.142,3.184-0.156,4.797h-84.497
				c-0.565-14.142-5.916-27.069-14.478-37.208C244.202,19.519,246.62,15.9,248.89,15.163z"></path></svg>