<svg xmlns="http://www.w3.org/2000/svg" viewBox="0 0 512 512" id="hospital"><polygon fill="#00efd1" points="486.5 449.74 486.5 484.39 222.39 484.39 25.5 484.39 25.5 449.74 48.5 449.74 256.5 449.74 464.5 449.74 486.5 449.74"></polygon><path fill="#00acea" d="M464.5,449.61v.13h-208v-291h26.92a78.622,78.622,0,0,0,157.15,0H464.5Z"></path><path fill="#00efd1" d="M283.42,158.74c-.03-.93-.05-1.86-.05-2.8a78.63,78.63,0,1,1,157.26.12c0,.9-.02,1.79-.06,2.68a78.622,78.622,0,0,1-157.15,0Zm118.2,8.78.02-22.98-28.14-.02.02-28.14-22.97-.02-.02,28.14-28.15-.02-.01,22.98,28.14.02-.02,28.14,22.97.02.02-28.14Z"></path><polygon fill="#fedb41" points="401.64 144.54 401.62 167.52 373.48 167.5 373.46 195.64 350.49 195.62 350.51 167.48 322.37 167.46 322.38 144.48 350.53 144.5 350.55 116.36 373.52 116.38 373.5 144.52 401.64 144.54"></polygon><polygon fill="#fedb41" points="256.5 449.61 256.5 449.74 48.5 449.74 48.5 449.61 48.5 27.61 256.5 27.61 256.5 158.74 256.5 449.61"></polygon><rect width="16" height="22.15" x="76.615" y="88.34" fill="#083863"></rect><rect width="16" height="22.15" x="121.99" y="88.35" fill="#083863"></rect><rect width="16" height="22.15" x="167.365" y="88.36" fill="#083863"></rect><rect width="16" height="22.15" x="212.74" y="88.37" fill="#083863"></rect><rect width="16" height="22.15" x="76.63" y="129.33" fill="#083863"></rect><rect width="16" height="22.15" x="122.005" y="129.34" fill="#083863"></rect><rect width="16" height="22.15" x="167.38" y="129.35" fill="#083863"></rect><rect width="16" height="22.15" x="212.76" y="129.37" fill="#083863"></rect><rect width="16" height="22.15" x="76.645" y="169.69" fill="#083863"></rect><rect width="16" height="22.16" x="122.02" y="169.7" fill="#083863"></rect><rect width="16" height="22.15" x="167.395" y="169.72" fill="#083863"></rect><rect width="16" height="22.15" x="212.775" y="169.73" fill="#083863"></rect><rect width="16" height="22.15" x="76.66" y="210.69" fill="#083863"></rect><rect width="16" height="22.15" x="122.035" y="210.7" fill="#083863"></rect><rect width="16" height="22.15" x="167.415" y="210.71" fill="#083863"></rect><rect width="16" height="22.15" x="212.79" y="210.72" fill="#083863"></rect><rect width="16" height="22.15" x="76.675" y="251.68" fill="#083863"></rect><rect width="16" height="22.15" x="122.055" y="251.69" fill="#083863"></rect><rect width="16" height="22.15" x="167.43" y="251.7" fill="#083863"></rect><rect width="16" height="22.15" x="212.805" y="251.71" fill="#083863"></rect><rect width="16" height="22.15" x="76.615" y="295.34" fill="#083863"></rect><rect width="16" height="22.15" x="121.99" y="295.35" fill="#083863"></rect><rect width="16" height="22.15" x="167.365" y="295.36" fill="#083863"></rect><rect width="16" height="22.15" x="212.74" y="295.37" fill="#083863"></rect><rect width="16" height="22.15" x="76.63" y="336.33" fill="#083863"></rect><rect width="16" height="22.15" x="122.005" y="336.34" fill="#083863"></rect><rect width="16" height="22.15" x="167.38" y="336.35" fill="#083863"></rect><rect width="16" height="22.15" x="212.76" y="336.37" fill="#083863"></rect><rect width="16" height="22.15" x="76.645" y="376.69" fill="#083863"></rect><rect width="16" height="22.16" x="122.02" y="376.7" fill="#083863"></rect><rect width="16" height="22.15" x="167.395" y="376.72" fill="#083863"></rect><rect width="16" height="22.15" x="212.775" y="376.73" fill="#083863"></rect><rect width="16" height="22.15" x="284.675" y="251.68" fill="#083863"></rect><rect width="16" height="22.15" x="330.055" y="251.69" fill="#083863"></rect><rect width="16" height="22.15" x="375.43" y="251.7" fill="#083863"></rect><rect width="16" height="22.15" x="420.805" y="251.71" fill="#083863"></rect><rect width="16" height="22.15" x="284.615" y="295.34" fill="#083863"></rect><rect width="16" height="22.15" x="329.99" y="295.35" fill="#083863"></rect><rect width="16" height="22.15" x="375.365" y="295.36" fill="#083863"></rect><rect width="16" height="22.15" x="420.74" y="295.37" fill="#083863"></rect><rect width="16" height="22.15" x="284.63" y="336.33" fill="#083863"></rect><rect width="16" height="22.15" x="330.005" y="336.34" fill="#083863"></rect><rect width="16" height="22.15" x="375.38" y="336.35" fill="#083863"></rect><rect width="16" height="22.15" x="420.76" y="336.37" fill="#083863"></rect><rect width="16" height="22.15" x="284.645" y="376.69" fill="#083863"></rect><rect width="16" height="22.16" x="330.02" y="376.7" fill="#083863"></rect><rect width="16" height="22.15" x="375.395" y="376.72" fill="#083863"></rect><rect width="16" height="22.15" x="420.775" y="376.73" fill="#083863"></rect><path fill="#083863" d="M486.5,442H472V158.74a7.369,7.369,0,0,0-7.5-7.74H448.465c-2.73-46-40.423-82-86.4-82H362c-45.982,0-83.73,36-86.469,82H264V27.61A7.262,7.262,0,0,0,256.5,20H48.5c-4.418,0-8.5,3.191-8.5,7.61V442H25.5c-4.418,0-8.5,3.322-8.5,7.74v34.65c0,4.419,4.082,7.61,8.5,7.61h461a7.262,7.262,0,0,0,7.5-7.61V449.74A7.369,7.369,0,0,0,486.5,442ZM456,442H264V167h12.044a86.185,86.185,0,0,0,18.8,43.822l-10.176-.074-.02,22.117,16,0,.014-15.721c.356.357.7.906,1.059,1.257A86.291,86.291,0,0,0,361.934,243H362a86.315,86.315,0,0,0,58.795-23.232l-.012,13.187,16-.031.02-22.173-7.671.111A86.118,86.118,0,0,0,447.95,167H456ZM362,85h.051c38.943,0,70.6,31.93,70.577,70.875,0,.779-.017,1.642-.055,2.5A71.027,71.027,0,0,1,362,227h-.052a70.969,70.969,0,0,1-70.531-68.428c-.027-.843-.046-1.918-.046-2.764C291.406,116.882,323.088,85,362,85ZM56,36H248V442H56ZM478,476H33V458H478Z"></path><path fill="#083863" d="M322.364,175.46l20.14.014-.014,20.141a8.156,8.156,0,0,0,7.993,8.185l22.97.2h.007a8.317,8.317,0,0,0,8-8.264l.014-19.945,20.14.209h.006a8.209,8.209,0,0,0,8-8.233l.02-23.1a8.135,8.135,0,0,0-2.339-5.719,8.028,8.028,0,0,0-5.655-2.378l-20.14-.029.014-20.148a8.159,8.159,0,0,0-7.993-8.189l-22.97-.2h-.007a8.315,8.315,0,0,0-8,8.264l-.014,19.945L322.386,136h-.006a8.423,8.423,0,0,0-8,8.357l-.01,23.04A8.051,8.051,0,0,0,322.364,175.46Zm8.012-22.724,20.148.264h.006a8.218,8.218,0,0,0,8-8.244l.014-20.264,6.97-.056-.014,20.109a7.987,7.987,0,0,0,7.994,7.991l20.139.006-.006,7.226L373.486,160h-.006a7.79,7.79,0,0,0-8,7.744l-.014,20.014-6.97-.069.014-20.172a8.013,8.013,0,0,0-7.994-8.021l-20.142.1Z"></path></svg>