<svg xmlns="http://www.w3.org/2000/svg" viewBox="0 0 47.5 47.5" id="hotel"><defs><clipPath id="a"><path d="M0 38h38V0H0v38Z"></path></clipPath></defs><g clip-path="url(#a)" transform="matrix(1.25 0 0 -1.25 0 47.5)"><path fill="#c1694f" d="M22 22a4 4 0 0 0-4-4H5a4 4 0 0 0-4 4v3a4 4 0 0 0 4 4h13a4 4 0 0 0 4-4v-3Z"></path><path fill="#c1694f" d="M37 31a4 4 0 0 0-4-4H21a4 4 0 0 0-4 4v1a4 4 0 0 0 4 4h12a4 4 0 0 0 4-4v-1Z"></path><path fill="#ffcc4d" d="M1 25V3a2 2 0 0 1 2-2h31v24H1z"></path><path fill="#55acee" d="M15 1H3v4h12V1zm4 6H3v4h16V7z"></path><path fill="#ffe8b6" d="M17 32V1h18a2 2 0 0 1 2 2v29H17Z"></path><path fill="#55acee" d="M35 13H19v4h16v-4zm0 6H19v4h16v-4zm0 6H19v4h16v-4zm0-18H19v4h16V7z"></path><path fill="#ffe8b6" d="M25 6h-2v24h2V6zm6 0h-2v24h2V6z"></path><path fill="#3b88c3" d="M31 1h-8v4h8V1zM11 23v-4H7v4H5V13h2v4h4v-4h2v10h-2z"></path><path fill="#ffcc4d" d="M10 6H8v6h2V6zm7 0h-2v6h2V6z"></path></g></svg>