<svg xmlns="http://www.w3.org/2000/svg" viewBox="0 0 512 512" id="stage"><g><polygon fill="#f5b068" points="64 216 40 208 40 192 64 184 64 216"></polygon><polygon fill="#f5b068" points="448 216 472 208 472 192 448 184 448 216"></polygon><path fill="#faefd0" d="M128 328h32a24 24 0 0124 24V456a0 0 0 010 0H104a0 0 0 010 0V352A24 24 0 01128 328zM240 328h32a24 24 0 0124 24V456a0 0 0 010 0H216a0 0 0 010 0V352A24 24 0 01240 328zM352 328h32a24 24 0 0124 24V456a0 0 0 010 0H328a0 0 0 010 0V352A24 24 0 01352 328z"></path><path fill="#f6d386" d="M40 88h64a0 0 0 010 0v64.971A39.029 39.029 0 0164.971 192H40a0 0 0 010 0V88A0 0 0 0140 88zM88 256H40V208H65.8A22.2 22.2 0 0188 230.2z"></path><path fill="#f6d386" d="M408,88h24.971A39.029,39.029,0,0,1,472,127.029V192a0,0,0,0,1,0,0H408a0,0,0,0,1,0,0V88A0,0,0,0,1,408,88Z" transform="rotate(-180 440 140)"></path><path fill="#f6d386" d="M424,256h48V208H446.2A22.2,22.2,0,0,0,424,230.2Z"></path><rect width="448" height="56" x="32" y="248" fill="#faefd0" rx="4" ry="4"></rect><rect width="448" height="56" x="32" y="40" fill="#ccc" rx="4" ry="4"></rect><path fill="#57c5b9" d="M72 368h32a24 24 0 0124 24v64a0 0 0 010 0H48a0 0 0 010 0V392A24 24 0 0172 368zM184 368h32a24 24 0 0124 24v64a0 0 0 010 0H160a0 0 0 010 0V392A24 24 0 01184 368zM296 368h32a24 24 0 0124 24v64a0 0 0 010 0H272a0 0 0 010 0V392A24 24 0 01296 368zM408 368h32a24 24 0 0124 24v64a0 0 0 010 0H384a0 0 0 010 0V392A24 24 0 01408 368z"></path><rect width="432" height="24" x="40" y="448" fill="#f6d386" rx="8" ry="8"></rect><path d="M468,444.7V392a28.032,28.032,0,0,0-28-28H412V352a28.032,28.032,0,0,0-28-28H352a28.032,28.032,0,0,0-28,28v12H300V352a28.032,28.032,0,0,0-28-28H240a28.032,28.032,0,0,0-28,28v12H188V352a28.032,28.032,0,0,0-28-28H128a28.032,28.032,0,0,0-28,28v12H72a28.032,28.032,0,0,0-28,28v52.7A12.01,12.01,0,0,0,36,456v8a12.013,12.013,0,0,0,12,12H464a12.013,12.013,0,0,0,12-12v-8A12.01,12.01,0,0,0,468,444.7ZM460,392v52H388V392a20.023,20.023,0,0,1,20-20h32A20.023,20.023,0,0,1,460,392ZM352,332h32a20.023,20.023,0,0,1,20,20v12.29A28.04,28.04,0,0,0,380,392v52H356V392a28.04,28.04,0,0,0-24-27.71V352A20.023,20.023,0,0,1,352,332Zm-56,40h32a20.023,20.023,0,0,1,20,20v52H276V392A20.023,20.023,0,0,1,296,372Zm-56-40h32a20.023,20.023,0,0,1,20,20v12.29A28.04,28.04,0,0,0,268,392v52H244V392a28.04,28.04,0,0,0-24-27.71V352A20.023,20.023,0,0,1,240,332Zm-56,40h32a20.023,20.023,0,0,1,20,20v52H164V392A20.023,20.023,0,0,1,184,372Zm-56-40h32a20.023,20.023,0,0,1,20,20v12.29A28.04,28.04,0,0,0,156,392v52H132V392a28.04,28.04,0,0,0-24-27.71V352A20.023,20.023,0,0,1,128,332ZM72,372h32a20.023,20.023,0,0,1,20,20v52H52V392A20.023,20.023,0,0,1,72,372Zm396,92a4,4,0,0,1-4,4H48a4,4,0,0,1-4-4v-8a4,4,0,0,1,4-4H464a4,4,0,0,1,4,4Z"></path><path d="M72 396h32a4 4 0 000-8H72a4 4 0 000 8zM128 356h32a4 4 0 000-8H128a4 4 0 000 8zM240 356h32a4 4 0 000-8H240a4 4 0 000 8zM352 356h32a4 4 0 000-8H352a4 4 0 000 8zM184 396h32a4 4 0 000-8H184a4 4 0 000 8zM296 396h32a4 4 0 000-8H296a4 4 0 000 8zM404 392a4 4 0 004 4h32a4 4 0 000-8H408A4 4 0 00404 392zM60.423 177.789a3.995 3.995 0 005.366 1.788A32.765 32.765 0 0084 150.111V128a4 4 0 00-8 0v22.111a24.811 24.811 0 01-13.789 22.312A4 4 0 0060.423 177.789z"></path><path d="M476,100a8.009,8.009,0,0,0,8-8V44a8.009,8.009,0,0,0-8-8H36a8.009,8.009,0,0,0-8,8V92a8.009,8.009,0,0,0,8,8V244a8.009,8.009,0,0,0-8,8v48a8.009,8.009,0,0,0,8,8H476a8.009,8.009,0,0,0,8-8V252a8.009,8.009,0,0,0-8-8ZM420,230.2V244H92V230.2a26.234,26.234,0,0,0-24-26.1v-8.219a43.076,43.076,0,0,0,40-42.91V100H404v52.971a43.076,43.076,0,0,0,40,42.91V204.1A26.234,26.234,0,0,0,420,230.2ZM44,196H60v8H44Zm408,0h16v8H452Zm16-8H447.029A35.069,35.069,0,0,1,412,152.971V100h56ZM36,44H476l0,48H36Zm64,56v52.971A35.069,35.069,0,0,1,64.971,188H44V100ZM44,212H65.8A18.224,18.224,0,0,1,84,230.2V244H44Zm432.005,88H36V252H476Zm-48-56V230.2A18.224,18.224,0,0,1,446.2,212H468v32Z"></path><path d="M446.211,179.577a4,4,0,0,0,3.578-7.154A24.811,24.811,0,0,1,436,150.111V128a4,4,0,0,0-8,0v22.111A32.765,32.765,0,0,0,446.211,179.577Z"></path></g></svg>