<svg xmlns="http://www.w3.org/2000/svg" viewBox="0 0 48 48" id="sports"><circle cx="24" cy="22" r="20" fill="#eff3f9"></circle><path fill="#dbe6f7" d="M42.41,29.82a18.241,18.241,0,0,1-1.6,2.99A19.989,19.989,0,1,1,13.19,5.19a19.944,19.944,0,0,0,1.69,23.89,9.652,9.652,0,0,1,1.91,1.31,22.069,22.069,0,0,1,25.62-.57Z"></path><path fill="#0d3b8d" d="M32,20.454l5.8-1.884,6.177,4.49c.02-.35.03-.7.03-1.06A19.867,19.867,0,0,0,39.53,9.41l-2.364,7.261L30.51,18.833l-5.51-4V7.822L31.18,3.33a20.046,20.046,0,0,0-14.36,0L23,7.822V14.83l-5.51,4-6.656-2.162L8.47,9.41A19.867,19.867,0,0,0,4,22c0,.36.01.71.03,1.06l6.177-4.49,5.8,1.884a.975.975,0,0,0,.044.281L18.408,28,14.859,32.88H7.23a19.912,19.912,0,0,0,11.61,8.44l-2.362-7.265,3.2-4.4h8.652l3.2,4.4L29.16,41.32a19.912,19.912,0,0,0,11.61-8.44H33.141L29.592,28l2.359-7.26A.975.975,0,0,0,32,20.454Z"></path><path fill="#00286f" d="M10 16c0-.553.039-1.1.083-1.637L8.47 9.41A19.867 19.867 0 004 22c0 .36.01.71.03 1.06l6.156-4.474A20.062 20.062 0 0110 16zM30 26a22.05 22.05 0 00-13.213 4.391c-.024-.021-.051-.04-.075-.061l-1.853 2.55H7.23a19.912 19.912 0 0011.61 8.44l-2.362-7.265 3.2-4.4h8.652l3.2 4.4L29.16 41.32a19.912 19.912 0 0011.61-8.44H33.141L29.592 28l.646-1.989C30.159 26.006 30.08 26 30 26z"></path><path fill="#9a4c29" d="M45.281,35.048a20.09,20.09,0,0,0-30.562,0,3.028,3.028,0,0,0,0,3.9,20.09,20.09,0,0,0,30.562,0A3.028,3.028,0,0,0,45.281,35.048Z"></path><path fill="#7d3327" d="M30,43a28.975,28.975,0,0,1-15.637-4.584,2.935,2.935,0,0,0,.356.536,20.09,20.09,0,0,0,30.562,0,2.935,2.935,0,0,0,.356-.536A28.975,28.975,0,0,1,30,43Z"></path><path fill="#eff3f9" d="M20.55 30.36a15.928 15.928 0 010 13.28 17.869 17.869 0 01-1.72-1.04 13.987 13.987 0 000-11.2A17.869 17.869 0 0120.55 30.36zM40 37a13.93 13.93 0 001.17 5.6 17.869 17.869 0 01-1.72 1.04 15.928 15.928 0 010-13.28 17.869 17.869 0 011.72 1.04A13.93 13.93 0 0040 37z"></path><path fill="#dbe6f7" d="M40.59 41q-.93.375-1.89.66a15.215 15.215 0 00.75 1.98 17.869 17.869 0 001.72-1.04A12.712 12.712 0 0140.59 41zM19.41 41a12.712 12.712 0 01-.58 1.6 17.869 17.869 0 001.72 1.04 15.215 15.215 0 00.75-1.98Q20.34 41.375 19.41 41z"></path><path fill="#eff3f9" d="M34,36H33V35a1,1,0,0,0-2,0v1H29V35a1,1,0,0,0-2,0v1H26a1,1,0,0,0,0,2h1v1a1,1,0,0,0,2,0V38h2v1a1,1,0,0,0,2,0V38h1a1,1,0,0,0,0-2Z"></path><circle cx="10.5" cy="37.5" r="7.5" fill="#00d18d"></circle><path fill="#00af92" d="M13,43A7.991,7.991,0,0,1,5.7,31.74,7.5,7.5,0,1,0,16.26,42.3,7.959,7.959,0,0,1,13,43Z"></path><path fill="#eff3f9" d="M9.086 36.086a7.428 7.428 0 01-6.039 2.149 6.275 6.275 0 01-.042-.735 6.193 6.193 0 01.12-1.266 5.476 5.476 0 006.109-6.109 6.193 6.193 0 011.266-.12 6.275 6.275 0 01.735.042A7.428 7.428 0 019.086 36.086zM11.766 44.875A6.193 6.193 0 0110.5 45a6.275 6.275 0 01-.735-.042 7.469 7.469 0 018.188-8.188A6.275 6.275 0 0118 37.5a6.193 6.193 0 01-.12 1.266 5.476 5.476 0 00-6.109 6.109z"></path><path fill="#dbe6f7" d="M11.88 42.92a7.861 7.861 0 01-1.93-.52 7.075 7.075 0 00-.19 2.55 6.132 6.132 0 00.74.05 6.592 6.592 0 001.27-.12A5.623 5.623 0 0111.88 42.92zM5.08 36.12a5.623 5.623 0 01-1.96.11A6.592 6.592 0 003 37.5a6.132 6.132 0 00.05.74 7.075 7.075 0 002.55-.19A7.861 7.861 0 015.08 36.12z"></path></svg>